<svg width="24" height="25" viewBox="0 0 24 25" fill="none" xmlns="http://www.w3.org/2000/svg">
<path d="M9.53024 16.007C10.9039 17.1239 11.1352 18.3105 10.224 19.5668C9.10081 21.0796 7.02189 21.6291 5.26214 20.7781L5.2474 20.7709C5.24314 20.7689 5.23889 20.7668 5.23464 20.7647C3.25645 19.7994 2.4385 17.4195 3.40769 15.4492L5.60134 10.9896L6.834 8.48367L8.31545 5.47194C9.03535 4.00841 10.5369 3.18007 12.0739 3.24278C13.5587 3.23717 14.9877 4.05866 15.6845 5.47523L20.5923 15.4525C21.5615 17.4228 20.7435 19.8027 18.7654 20.768C18.7611 20.7701 18.7569 20.7722 18.7526 20.7742L18.7379 20.7813C16.7718 21.7321 14.4074 20.9348 13.4224 18.9991C12.9119 17.9298 13.2524 16.9204 14.4439 15.971H14.4435C15.3395 15.2501 15.9126 14.1467 15.9126 12.91C15.9126 10.738 14.1448 8.97726 11.9641 8.97726C9.78346 8.97726 8.01567 10.738 8.01567 12.91C8.01567 14.1675 8.60816 15.2871 9.53024 16.007ZM11.9677 14.9711C10.8219 14.9711 9.89309 14.046 9.89309 12.9048C9.89309 11.7635 10.8219 10.8384 11.9677 10.8384C13.1135 10.8384 14.0423 11.7635 14.0423 12.9048C14.0423 14.046 13.1135 14.9711 11.9677 14.9711Z" fill="#FF8F34"/>
</svg>
